<svg enable-background="new 0 0 150 150" viewBox="0 0 150 150" xmlns="http://www.w3.org/2000/svg"><path d="m24.2508717 16.8932838c-1.6059914 0-2.5787525.3416119-2.4475231 1.6684818l.408268 3.8806267c.3166161 2.9453583-1.4331036 4.0493488-4.0889263 4.4430351 2.8141308.4207649 4.4055424 1.4601822 4.0889263 4.445118l-.408268 3.8785419c-.1312294 1.3289528.8561115 1.6705666 2.4475231 1.6705666v2.8932838c-4.8388042 0-6.65518-1.3018723-6.2864895-4.8533859l.395771-3.7598114c.2103825-1.9996796-1.3685303-2.5912514-3.6035881-2.5912514v-3.366125c2.2079792 0 3.8139706-.5915699 3.6035881-2.5891666l-.395771-3.7348156c-.3936863-3.6035872 1.4476852-4.8783818 6.2864895-4.8783818z"/><path d="m37.4904099 32.2512321c0-.8936081-.5270004-1.2227211-3.3140526-1.9850979-2.5641689-.6853065-4.3263855-1.8163757-4.3263855-4.2868118 0-2.4850159 2.1309071-4.3138885 6.0615234-4.3138885 2.4850159 0 4.3013916.7103024 5.6553421 1.6976433l-1.6580696 2.4454403c-1.1560631-.7103024-2.5245934-1.1831436-3.87854-1.1831436-1.3539505 0-1.9975967.3541107-1.9975967 1.07691 0 .7228012.5644913 1.0123367 3.299469 1.8017941 2.70998.7623768 4.4701157 1.6830616 4.4701157 4.4180393 0 3.0640888-3.0370102 4.6159229-6.6010208 4.6159229-2.7078972 0-4.77215-.8415298-6.2177505-2.1038284l2.0892467-2.3412895c1.0789928.8415337 2.472517 1.4726791 4.1035061 1.4726791 1.3810271-.0000001 2.3142127-.4332619 2.3142127-1.3143693z"/><path d="m55.843708 32.0658455 1.8538666 2.630825c-1.2373009 1.0519142-3.0245132 1.8413696-5.1949959 1.8413696-4.5096931 0-7.2175903-2.9724388-7.2175903-7.3384018s2.7995491-7.5342045 7.2967415-7.5342045c2.118412 0 3.7223206.5915718 5.1158447 1.7497177l-1.8017921 2.4975147c-.9477654-.658226-2.0121765-1.0519142-3.1432457-1.0519142-1.8788643 0-3.1286621 1.1977253-3.1286621 4.3388863 0 3.0911713 1.3289528 4.0639305 3.1036682 4.0639305 1.1435623.0000001 2.1163254-.4999198 3.1161651-1.1977233z"/><path d="m74.0407791 22.1257763-.7769547 5.838644h-2.6016693v-2.5766697c-1.5789108.2874546-2.8016281 1.8392887-3.4598618 3.9181213v3.9972744h2.7620621v2.7870522h-8.7569274v-2.7870522h1.8413696v-8.4153137h-1.8413696v-2.7620564h5.009613l.7623749 3.1432438c.9998398-2.393364 2.5120926-3.5640087 4.7596512-3.5640087.9477615.0000001 1.643486.1583081 2.301712.420765z"/><path d="m82.8768616 21.9153938c1.5372467 0 2.7474747 1.2747936 2.7474747 2.7620544 0 1.4976768-1.210228 2.7474747-2.7474747 2.7474747-1.5393372 0-2.774559-1.2497978-2.774559-2.7474747 0-1.4872607 1.2352218-2.7620544 2.774559-2.7620544zm0 9.1256142c1.5372467 0 2.7474747 1.235218 2.7474747 2.7224808 0 1.5122566-1.210228 2.7745514-2.7474747 2.7745514-1.5393372 0-2.774559-1.2622948-2.774559-2.7745514 0-1.4872628 1.2352218-2.7224808 2.774559-2.7224808z"/><path d="m105.4107361 29.068409c0 4.3138885-1.9601059 7.4696312-5.3658066 7.4696312-1.3664474 0-2.4704361-.4999199-3.3119659-1.4601822v6.4031372l-4.1555862.4332657v-19.7884846h3.6806641l.1853867 1.5643311c1.1310654-1.4456005 2.5495911-2.0246735 3.8639603-2.0246735 3.6431654 0 5.1033476 2.8662052 5.1033476 7.4029751zm-8.6777725-2.7224789v5.8907185c.5769882.8561134 1.1685638 1.2498016 2.0496674 1.2498016 1.4726791 0 2.3412933-1.2227211 2.3412933-4.3659649 0-3.4702759-.7894592-4.3909607-2.1038284-4.3909607-.9602662 0-1.6830674.6186504-2.2871323 1.6164055z"/><path d="m116.3235626 36.5380402c-3.6556625 0-5.3908005-1.9996758-5.3908005-5.2074947v-6.3385639h-2.9328613v-2.8662052h2.9328613v-3.0245134l4.1534958-.4999199v3.5244331h4.4971924l-.4061813 2.8662052h-4.091011v6.3385639c0 1.3935261.6061554 1.9330235 1.9871826 1.9330235.9727631 0 1.7872162-.2624588 2.4454422-.6311493l1.3810272 2.6433258c-1.0914917.7103005-2.6433258 1.2622949-4.5763474 1.2622949z"/><path d="m68.3604431 62.4151306c0 1.1289825.6832199 1.5643311 1.801796 1.5643311.7102966 0 1.3935242-.1853867 1.9725952-.4207649l.997757 2.7745552c-.9456787.4999161-2.2600555.9206848-4.03685.9206848-3.366127 0-4.8908768-2.0913315-4.8908768-5.3533096v-11.7668572h-4.1160088v-2.8412094h8.2715874z"/><path d="m82.8768616 52.6312866c1.5372467 0 2.7474747 1.2747955 2.7474747 2.7620544 0 1.4976768-1.210228 2.7474747-2.7474747 2.7474747-1.5393372 0-2.774559-1.2497978-2.774559-2.7474747 0-1.4872588 1.2352218-2.7620544 2.774559-2.7620544zm0 9.1256142c1.5372467 0 2.7474747 1.235218 2.7474747 2.722477 0 1.5122604-1.210228 2.774559-2.7474747 2.774559-1.5393372 0-2.774559-1.2622986-2.774559-2.774559 0-1.487259 1.2352218-2.722477 2.774559-2.722477z"/><path d="m92.5773773 52.8416672h3.6285858l.2895355 1.6184921c1.2352219-1.3956108 2.5641708-2.0788345 4.3388901-2.0788345 2.380867 0 3.8389664 1.5247574 3.8389664 4.1680794v10.2566872h-4.1535034v-9.05896c0-1.710144-.3166122-2.3017159-1.3414459-2.3017159-.8811111 0-1.6580734.5915718-2.4454422 1.5914116v9.7692642h-4.1555862v-13.9644241z"/><path d="m116.3235626 67.2539368c-3.6556625 0-5.3908005-1.9996796-5.3908005-5.2075005v-6.338562h-2.9328613v-2.8662071h2.9328613v-3.0245132l4.1534958-.4999199v3.5244331h4.4971924l-.4061813 2.8662071h-4.091011v6.338562c0 1.393528.6061554 1.9330254 1.9871826 1.9330254.9727631 0 1.7872162-.2624588 2.4454422-.6311493l1.3810272 2.6433258c-1.0914917.7103042-2.6433258 1.2622986-4.5763474 1.2622986z"/><path d="m132.035614 49.5671959-.3957672 3.7618942c-.2103882 1.9975967 1.3685303 2.5891685 3.6035919 2.5891685v3.3661232c-2.2079773 0-3.8139801.5915718-3.6035919 2.5912514l.3957672 3.7348175c.393692 3.6015015-1.4476776 4.8783798-6.2864838 4.8783798v-2.8932877c1.6059875 0 2.5787506-.3416061 2.447525-1.6705627l-.4082718-3.8785439c-.3166122-2.9578552 1.4330978-4.0493469 4.1014175-4.445118-2.8266296-.4207649-4.4180298-1.4726791-4.1014175-4.4430351l.4082718-3.8806229c.1312256-1.32687-.8561172-1.6684837-2.447525-1.6684837v-2.8932838c4.8388062.0000001 6.6551819 1.3018723 6.2864838 4.8513032z"/><path d="m146 4v142h-142v-142zm4-4h-150v150h150z"/></svg>